<?xml version="1.0" encoding="utf-8"?>
<!-- Generator: Adobe Illustrator 18.0.0, SVG Export Plug-In . SVG Version: 6.00 Build 0)  -->
<!DOCTYPE svg PUBLIC "-//W3C//DTD SVG 1.1//EN" "http://www.w3.org/Graphics/SVG/1.1/DTD/svg11.dtd">
<svg version="1.1" id="Layer_1" xmlns="http://www.w3.org/2000/svg" xmlns:xlink="http://www.w3.org/1999/xlink" x="0px" y="0px"
	 viewBox="0 0 67.5 67.5" enable-background="new 0 0 67.5 67.5" xml:space="preserve">
<path d="M37.6,33.8L66.7,4.6c1.1-1.1,1.1-2.8,0-3.9c-1.1-1.1-2.8-1.1-3.9,0L33.8,29.9L4.6,0.8c-1.1-1.1-2.8-1.1-3.9,0
	c-1.1,1.1-1.1,2.8,0,3.9l29.1,29.1L0.8,62.9c-1.1,1.1-1.1,2.8,0,3.9c0.5,0.5,1.2,0.8,1.9,0.8c0.7,0,1.4-0.3,1.9-0.8l29.1-29.1
	l29.1,29.1c0.5,0.5,1.2,0.8,1.9,0.8c0.7,0,1.4-0.3,1.9-0.8c1.1-1.1,1.1-2.8,0-3.9L37.6,33.8z"/>
</svg>
