<?xml version="1.0" encoding="utf-8"?>
<!-- Generator: Adobe Illustrator 18.0.0, SVG Export Plug-In . SVG Version: 6.00 Build 0)  -->
<!DOCTYPE svg PUBLIC "-//W3C//DTD SVG 1.1//EN" "http://www.w3.org/Graphics/SVG/1.1/DTD/svg11.dtd">
<svg version="1.1" id="Layer_1" xmlns="http://www.w3.org/2000/svg" xmlns:xlink="http://www.w3.org/1999/xlink" x="0px" y="0px"
	 viewBox="0 0 53.7 73.8" enable-background="new 0 0 53.7 73.8" xml:space="preserve">
<path d="M52.7,49.3L29.2,72.8c-0.6,0.6-1.5,1-2.4,1s-1.7-0.4-2.4-1L1,49.3c-0.6-0.6-1-1.5-1-2.4c0-1.8,1.5-3.4,3.4-3.4h46.9
	c1.8,0,3.4,1.5,3.4,3.4C53.7,47.8,53.3,48.7,52.7,49.3z M50.3,30.2h-47c-1.8,0-3.4-1.5-3.4-3.4c0-0.9,0.4-1.7,1-2.4L24.5,1
	c0.6-0.6,1.5-1,2.4-1s1.7,0.4,2.4,1l23.5,23.5c0.6,0.6,1,1.5,1,2.4C53.7,28.7,52.1,30.2,50.3,30.2z"/>
</svg>
