<svg style="position: absolute; width: 0; height: 0;" width="0" height="0" version="1.1" xmlns="http://www.w3.org/2000/svg" xmlns:xlink="http://www.w3.org/1999/xlink">
<defs>
<symbol id="icon-location" viewBox="0 0 1024 1024">
<symbol id="icon-menu" viewBox="0 0 1024 1024">
<title>menu</title>
<path class="path1" d="M839.68 460.8h-655.36c-28.262 0-30.72 22.886-30.72 51.2s2.458 51.2 30.72 51.2h655.36c28.262 0 30.72-22.886 30.72-51.2s-2.458-51.2-30.72-51.2zM839.68 665.6h-655.36c-28.262 0-30.72 22.886-30.72 51.2s2.458 51.2 30.72 51.2h655.36c28.262 0 30.72-22.886 30.72-51.2s-2.458-51.2-30.72-51.2zM184.32 358.4h655.36c28.262 0 30.72-22.886 30.72-51.2s-2.458-51.2-30.72-51.2h-655.36c-28.262 0-30.72 22.886-30.72 51.2s2.458 51.2 30.72 51.2z"></path>
</symbol>
<title>location</title>
<path class="path1" d="M512 0c-176.732 0-320 143.268-320 320 0 320 320 704 320 704s320-384 320-704c0-176.732-143.27-320-320-320zM512 516c-108.248 0-196-87.752-196-196s87.752-196 196-196 196 87.752 196 196-87.752 196-196 196zM388 320c0-68.483 55.517-124 124-124s124 55.517 124 124c0 68.483-55.517 124-124 124s-124-55.517-124-124z"></path>
</symbol>
<symbol id="icon-user" viewBox="0 0 768 1024">
<title>user</title>
<path class="path1" d="M384 512c-212 0-384 172-384 384 0 70.752 57.248 128 128 128h512c70.752 0 128-57.248 128-128 0-212-172-384-384-384zM192 192c0-106.039 85.961-192 192-192s192 85.961 192 192c0 106.039-85.961 192-192 192s-192-85.961-192-192z"></path>
</symbol>
<symbol id="icon-file-pdf-o" viewBox="0 0 878 1024">
<title>file-pdf-o</title>
<path class="path1" d="M838.857 217.143q16 16 27.429 43.429t11.429 50.286v658.286q0 22.857-16 38.857t-38.857 16h-768q-22.857 0-38.857-16t-16-38.857v-914.286q0-22.857 16-38.857t38.857-16h512q22.857 0 50.286 11.429t43.429 27.429zM585.143 77.714v214.857h214.857q-5.714-16.571-12.571-23.429l-178.857-178.857q-6.857-6.857-23.429-12.571zM804.571 950.857v-585.143h-237.714q-22.857 0-38.857-16t-16-38.857v-237.714h-438.857v877.714h731.429zM510.857 612q18.857 14.857 48 32 33.714-4 66.857-4 84 0 101.143 28 9.143 12.571 1.143 29.714 0 0.571-0.571 1.143l-1.143 1.143v0.571q-3.429 21.714-40.571 21.714-27.429 0-65.714-11.429t-74.286-30.286q-126.286 13.714-224 47.429-87.429 149.714-138.286 149.714-8.571 0-16-4l-13.714-6.857q-0.571-0.571-3.429-2.857-5.714-5.714-3.429-20.571 5.143-22.857 32-52.286t75.429-55.143q8-5.143 13.143 3.429 1.143 1.143 1.143 2.286 29.714-48.571 61.143-112.571 38.857-77.714 59.429-149.714-13.714-46.857-17.429-91.143t3.714-72.857q6.286-22.857 24-22.857h12.571q13.143 0 20 8.571 10.286 12 5.143 38.857-1.143 3.429-2.286 4.571 0.571 1.714 0.571 4.571v17.143q-1.143 70.286-8 109.714 31.429 93.714 83.429 136zM181.714 846.857q29.714-13.714 78.286-90.286-29.143 22.857-50 48t-28.286 42.286zM409.143 321.143q-8.571 24-1.143 75.429 0.571-4 4-25.143 0-1.714 4-24.571 0.571-2.286 2.286-4.571-0.571-0.571-0.571-1.143t-0.286-0.857-0.286-0.857q-0.571-12.571-7.429-20.571 0 0.571-0.571 1.143v1.143zM338.286 698.857q77.143-30.857 162.286-46.286-1.143-0.571-7.429-5.429t-9.143-7.714q-43.429-38.286-72.571-100.571-15.429 49.143-47.429 112.571-17.143 32-25.714 47.429zM707.429 689.714q-13.714-13.714-80-13.714 43.429 16 70.857 16 8 0 10.286-0.571 0-0.571-1.143-1.714z"></path>
</symbol>
<symbol id="icon-angle-right" viewBox="0 0 347 1024">
<title>angle-right</title>
<path class="path1" d="M340 548.571q0 7.429-5.714 13.143l-266.286 266.286q-5.714 5.714-13.143 5.714t-13.143-5.714l-28.571-28.571q-5.714-5.714-5.714-13.143t5.714-13.143l224.571-224.571-224.571-224.571q-5.714-5.714-5.714-13.143t5.714-13.143l28.571-28.571q5.714-5.714 13.143-5.714t13.143 5.714l266.286 266.286q5.714 5.714 5.714 13.143z"></path>
</symbol>
<symbol id="icon-angle-double-right" viewBox="0 0 567 1024">
<title>angle-double-right</title>
<path class="path1" d="M340 548.571q0 7.429-5.714 13.143l-266.286 266.286q-5.714 5.714-13.143 5.714t-13.143-5.714l-28.571-28.571q-5.714-5.714-5.714-13.143t5.714-13.143l224.571-224.571-224.571-224.571q-5.714-5.714-5.714-13.143t5.714-13.143l28.571-28.571q5.714-5.714 13.143-5.714t13.143 5.714l266.286 266.286q5.714 5.714 5.714 13.143zM559.429 548.571q0 7.429-5.714 13.143l-266.286 266.286q-5.714 5.714-13.143 5.714t-13.143-5.714l-28.571-28.571q-5.714-5.714-5.714-13.143t5.714-13.143l224.571-224.571-224.571-224.571q-5.714-5.714-5.714-13.143t5.714-13.143l28.571-28.571q5.714-5.714 13.143-5.714t13.143 5.714l266.286 266.286q5.714 5.714 5.714 13.143z"></path>
</symbol>
<symbol id="icon-angle-left" viewBox="0 0 384 1024">
<title>angle-left</title>
<path class="path1" d="M358.286 310.857q0 7.429-5.714 13.143l-224.571 224.571 224.571 224.571q5.714 5.714 5.714 13.143t-5.714 13.143l-28.571 28.571q-5.714 5.714-13.143 5.714t-13.143-5.714l-266.286-266.286q-5.714-5.714-5.714-13.143t5.714-13.143l266.286-266.286q5.714-5.714 13.143-5.714t13.143 5.714l28.571 28.571q5.714 5.714 5.714 13.143z"></path>
</symbol>
<symbol id="icon-angle-double-left" viewBox="0 0 603 1024">
<title>angle-double-left</title>
<path class="path1" d="M358.286 786.286q0 7.429-5.714 13.143l-28.571 28.571q-5.714 5.714-13.143 5.714t-13.143-5.714l-266.286-266.286q-5.714-5.714-5.714-13.143t5.714-13.143l266.286-266.286q5.714-5.714 13.143-5.714t13.143 5.714l28.571 28.571q5.714 5.714 5.714 13.143t-5.714 13.143l-224.571 224.571 224.571 224.571q5.714 5.714 5.714 13.143zM577.714 786.286q0 7.429-5.714 13.143l-28.571 28.571q-5.714 5.714-13.143 5.714t-13.143-5.714l-266.286-266.286q-5.714-5.714-5.714-13.143t5.714-13.143l266.286-266.286q5.714-5.714 13.143-5.714t13.143 5.714l28.571 28.571q5.714 5.714 5.714 13.143t-5.714 13.143l-224.571 224.571 224.571 224.571q5.714 5.714 5.714 13.143z"></path>
</symbol>
<symbol id="icon-chevron-right" viewBox="0 0 695 1024">
<title>chevron-right</title>
<path class="path1" d="M632.571 501.143l-424 424q-10.857 10.857-25.714 10.857t-25.714-10.857l-94.857-94.857q-10.857-10.857-10.857-25.714t10.857-25.714l303.429-303.429-303.429-303.429q-10.857-10.857-10.857-25.714t10.857-25.714l94.857-94.857q10.857-10.857 25.714-10.857t25.714 10.857l424 424q10.857 10.857 10.857 25.714t-10.857 25.714z"></path>
</symbol>
<symbol id="icon-chevron-left" viewBox="0 0 768 1024">
<title>chevron-left</title>
<path class="path1" d="M669.143 172l-303.429 303.429 303.429 303.429q10.857 10.857 10.857 25.714t-10.857 25.714l-94.857 94.857q-10.857 10.857-25.714 10.857t-25.714-10.857l-424-424q-10.857-10.857-10.857-25.714t10.857-25.714l424-424q10.857-10.857 25.714-10.857t25.714 10.857l94.857 94.857q10.857 10.857 10.857 25.714t-10.857 25.714z"></path>
</symbol>
<symbol id="icon-print" viewBox="0 0 951 1024">
<title>print</title>
<path class="path1" d="M219.429 877.714h512v-146.286h-512v146.286zM219.429 512h512v-219.429h-91.429q-22.857 0-38.857-16t-16-38.857v-91.429h-365.714v365.714zM877.714 548.571q0-14.857-10.857-25.714t-25.714-10.857-25.714 10.857-10.857 25.714 10.857 25.714 25.714 10.857 25.714-10.857 10.857-25.714zM950.857 548.571v237.714q0 7.429-5.429 12.857t-12.857 5.429h-128v91.429q0 22.857-16 38.857t-38.857 16h-548.571q-22.857 0-38.857-16t-16-38.857v-91.429h-128q-7.429 0-12.857-5.429t-5.429-12.857v-237.714q0-45.143 32.286-77.429t77.429-32.286h36.571v-310.857q0-22.857 16-38.857t38.857-16h384q22.857 0 50.286 11.429t43.429 27.429l86.857 86.857q16 16 27.429 43.429t11.429 50.286v146.286h36.571q45.143 0 77.429 32.286t32.286 77.429z"></path>
</symbol>
<symbol id="icon-commenting" viewBox="0 0 1024 1024">
<title>commenting</title>
<path class="path1" d="M365.714 512q0-30.286-21.429-51.714t-51.714-21.429-51.714 21.429-21.429 51.714 21.429 51.714 51.714 21.429 51.714-21.429 21.429-51.714zM585.143 512q0-30.286-21.429-51.714t-51.714-21.429-51.714 21.429-21.429 51.714 21.429 51.714 51.714 21.429 51.714-21.429 21.429-51.714zM804.571 512q0-30.286-21.429-51.714t-51.714-21.429-51.714 21.429-21.429 51.714 21.429 51.714 51.714 21.429 51.714-21.429 21.429-51.714zM1024 512q0 99.429-68.571 183.714t-186.286 133.143-257.143 48.857q-62.857 0-120.571-10.286-98.857 98.857-248.571 130.857-29.714 5.714-49.143 7.429-6.857 0.571-12.571-3.429t-7.429-10.286q-2.286-8.571 11.429-21.143 2.857-2.857 13.429-12.286t14.571-13.429 13.429-14.571 13.714-18 11.714-21.143 11.429-27.429 8.286-32.857 7.143-41.429q-83.429-51.429-131.143-123.714t-47.714-154q0-99.429 68.571-183.714t186.286-133.143 257.143-48.857 257.143 48.857 186.286 133.143 68.571 183.714z"></path>
</symbol>
<symbol id="icon-pencil" viewBox="0 0 866 1024">
<title>pencil</title>
<path class="path1" d="M207.429 877.714l52-52-134.286-134.286-52 52v61.143h73.143v73.143h61.143zM506.286 347.429q0-12.571-12.571-12.571-5.714 0-9.714 4l-309.714 309.714q-4 4-4 9.714 0 12.571 12.571 12.571 5.714 0 9.714-4l309.714-309.714q4-4 4-9.714zM475.429 237.714l237.714 237.714-475.429 475.429h-237.714v-237.714zM865.714 292.571q0 30.286-21.143 51.429l-94.857 94.857-237.714-237.714 94.857-94.286q20.571-21.714 51.429-21.714 30.286 0 52 21.714l134.286 133.714q21.143 22.286 21.143 52z"></path>
</symbol>
<symbol id="icon-envelope" viewBox="0 0 1024 1024">
<title>envelope</title>
<path class="path1" d="M1024 405.714v453.714q0 37.714-26.857 64.571t-64.571 26.857h-841.143q-37.714 0-64.571-26.857t-26.857-64.571v-453.714q25.143 28 57.714 49.714 206.857 140.571 284 197.143 32.571 24 52.857 37.429t54 27.429 62.857 14h1.143q29.143 0 62.857-14t54-27.429 52.857-37.429q97.143-70.286 284.571-197.143 32.571-22.286 57.143-49.714zM1024 237.714q0 45.143-28 86.286t-69.714 70.286q-214.857 149.143-267.429 185.714-5.714 4-24.286 17.429t-30.857 21.714-29.714 18.571-32.857 15.429-28.571 5.143h-1.143q-13.143 0-28.571-5.143t-32.857-15.429-29.714-18.571-30.857-21.714-24.286-17.429q-52-36.571-149.714-104.286t-117.143-81.429q-35.429-24-66.857-66t-31.429-78q0-44.571 23.714-74.286t67.714-29.714h841.143q37.143 0 64.286 26.857t27.143 64.571z"></path>
</symbol>
<symbol id="icon-search" viewBox="0 0 951 1024">
<title>search</title>
<path class="path1" d="M658.286 475.429q0-105.714-75.143-180.857t-180.857-75.143-180.857 75.143-75.143 180.857 75.143 180.857 180.857 75.143 180.857-75.143 75.143-180.857zM950.857 950.857q0 29.714-21.714 51.429t-51.429 21.714q-30.857 0-51.429-21.714l-196-195.429q-102.286 70.857-228 70.857-81.714 0-156.286-31.714t-128.571-85.714-85.714-128.571-31.714-156.286 31.714-156.286 85.714-128.571 128.571-85.714 156.286-31.714 156.286 31.714 128.571 85.714 85.714 128.571 31.714 156.286q0 125.714-70.857 228l196 196q21.143 21.143 21.143 51.429z"></path>
</symbol>
<symbol id="icon-youtube" viewBox="0 0 878 1024">
<title>youtube</title>
<path class="path1" d="M554.857 710.857v120.571q0 38.286-22.286 38.286-13.143 0-25.714-12.571v-172q12.571-12.571 25.714-12.571 22.286 0 22.286 38.286zM748 711.429v26.286h-51.429v-26.286q0-38.857 25.714-38.857t25.714 38.857zM196 586.857h61.143v-53.714h-178.286v53.714h60v325.143h57.143v-325.143zM360.571 912h50.857v-282.286h-50.857v216q-17.143 24-32.571 24-10.286 0-12-12-0.571-1.714-0.571-20v-208h-50.857v223.429q0 28 4.571 41.714 6.857 21.143 33.143 21.143 27.429 0 58.286-34.857v30.857zM605.714 827.429v-112.571q0-41.714-5.143-56.571-9.714-32-40.571-32-28.571 0-53.143 30.857v-124h-50.857v378.857h50.857v-27.429q25.714 31.429 53.143 31.429 30.857 0 40.571-31.429 5.143-15.429 5.143-57.143zM798.857 821.714v-7.429h-52q0 29.143-1.143 34.857-4 20.571-22.857 20.571-26.286 0-26.286-39.429v-49.714h102.286v-58.857q0-45.143-15.429-66.286-22.286-29.143-60.571-29.143-38.857 0-61.143 29.143-16 21.143-16 66.286v98.857q0 45.143 16.571 66.286 22.286 29.143 61.714 29.143 41.143 0 61.714-30.286 10.286-15.429 12-30.857 1.143-5.143 1.143-33.143zM451.429 300v-120q0-39.429-24.571-39.429t-24.571 39.429v120q0 40 24.571 40t24.571-40zM862.286 729.143q0 133.714-14.857 200-8 33.714-33.143 56.571t-58.286 26.286q-105.143 12-317.143 12t-317.143-12q-33.143-3.429-58.571-26.286t-32.857-56.571q-14.857-64-14.857-200 0-133.714 14.857-200 8-33.714 33.143-56.571t58.857-26.857q104.571-11.429 316.571-11.429t317.143 11.429q33.143 4 58.571 26.857t32.857 56.571q14.857 64 14.857 200zM292 0h58.286l-69.143 228v154.857h-57.143v-154.857q-8-42.286-34.857-121.143-21.143-58.857-37.143-106.857h60.571l40.571 150.286zM503.429 190.286v100q0 46.286-16 67.429-21.143 29.143-60.571 29.143-38.286 0-60-29.143-16-21.714-16-67.429v-100q0-45.714 16-66.857 21.714-29.143 60-29.143 39.429 0 60.571 29.143 16 21.143 16 66.857zM694.857 97.714v285.143h-52v-31.429q-30.286 35.429-58.857 35.429-26.286 0-33.714-21.143-4.571-13.714-4.571-42.857v-225.143h52v209.714q0 18.857 0.571 20 1.714 12.571 12 12.571 15.429 0 32.571-24.571v-217.714h52z"></path>
</symbol>
<symbol id="icon-facebook" viewBox="0 0 602 1024">
<title>facebook</title>
<path class="path1" d="M548 6.857v150.857h-89.714q-49.143 0-66.286 20.571t-17.143 61.714v108h167.429l-22.286 169.143h-145.143v433.714h-174.857v-433.714h-145.714v-169.143h145.714v-124.571q0-106.286 59.429-164.857t158.286-58.571q84 0 130.286 6.857z"></path>
</symbol>
<symbol id="icon-twitter" viewBox="0 0 951 1024">
<title>twitter</title>
<path class="path1" d="M925.714 233.143q-38.286 56-92.571 95.429 0.571 8 0.571 24 0 74.286-21.714 148.286t-66 142-105.429 120.286-147.429 83.429-184.571 31.143q-154.857 0-283.429-82.857 20 2.286 44.571 2.286 128.571 0 229.143-78.857-60-1.143-107.429-36.857t-65.143-91.143q18.857 2.857 34.857 2.857 24.571 0 48.571-6.286-64-13.143-106-63.714t-42-117.429v-2.286q38.857 21.714 83.429 23.429-37.714-25.143-60-65.714t-22.286-88q0-50.286 25.143-93.143 69.143 85.143 168.286 136.286t212.286 56.857q-4.571-21.714-4.571-42.286 0-76.571 54-130.571t130.571-54q80 0 134.857 58.286 62.286-12 117.143-44.571-21.143 65.714-81.143 101.714 53.143-5.714 106.286-28.571z"></path>
</symbol>
<symbol id="icon-close" viewBox="0 0 1024 1024">
<title>close</title>
<path class="path1" d="M570.406 512.759l441.458-442.975c16.687-16.687 16.687-42.477 0-59.164s-42.477-16.687-59.164 0l-439.941 442.975-442.975-441.458c-16.687-16.687-42.477-16.687-59.164 0s-16.687 42.477 0 59.164l441.458 441.458-439.941 441.458c-16.687 16.687-16.687 42.477 0 59.164 7.585 7.585 18.204 12.136 28.824 12.136s21.239-4.551 28.824-12.136l441.458-441.458 441.458 441.458c7.585 7.585 18.204 12.136 28.824 12.136s21.239-4.551 28.824-12.136c16.687-16.687 16.687-42.477 0-59.164l-439.941-441.458z"></path>
</symbol>
</defs>
</svg>
